<svg width="20" height="20" viewBox="0 0 20 20" fill="none" xmlns="http://www.w3.org/2000/svg">
<path d="M10 0.144531H9.94744C7.83142 0.14452 6.17313 0.14451 4.87927 0.318466C3.55493 0.496519 2.50991 0.868081 1.68967 1.68832C0.869423 2.50857 0.497861 3.55359 0.319808 4.87793C0.145853 6.17179 0.145862 7.83007 0.145874 9.9461V10.0513C0.145862 12.1673 0.145853 13.8256 0.319808 15.1195C0.497861 16.4438 0.869423 17.4888 1.68967 18.3091C2.50991 19.1293 3.55493 19.5009 4.87927 19.6789C6.17313 19.8529 7.83142 19.8529 9.94745 19.8529H10.0526C12.1687 19.8529 13.8269 19.8529 15.1208 19.6789C16.4452 19.5009 17.4902 19.1293 18.3104 18.3091C19.1307 17.4888 19.5022 16.4438 19.6803 15.1195C19.8542 13.8256 19.8542 12.1673 19.8542 10.0513V9.9987C19.8542 9.619 19.5464 9.3112 19.1667 9.3112C18.787 9.3112 18.4792 9.619 18.4792 9.9987C18.4792 12.1787 18.4777 13.7446 18.3175 14.9363C18.16 16.1081 17.8603 16.8146 17.3381 17.3368C16.816 17.859 16.1095 18.1586 14.9376 18.3162C13.7459 18.4764 12.1801 18.4779 10 18.4779C7.82 18.4779 6.25413 18.4764 5.06249 18.3162C3.89062 18.1586 3.18412 17.859 2.66194 17.3368C2.13975 16.8146 1.8401 16.1081 1.68255 14.9363C1.52233 13.7446 1.52087 12.1787 1.52087 9.9987C1.52087 7.81866 1.52233 6.25279 1.68255 5.06114C1.8401 3.88927 2.13975 3.18278 2.66194 2.66059C3.18412 2.13841 3.89062 1.83876 5.06249 1.6812C6.25413 1.52099 7.82 1.51953 10 1.51953C10.3797 1.51953 10.6875 1.21173 10.6875 0.832032C10.6875 0.452336 10.3797 0.144531 10 0.144531Z" fill="#595959"/>
<path d="M10.4306 8.5959C10.1621 8.86438 10.1621 9.29968 10.4306 9.56817C10.6991 9.83665 11.1344 9.83665 11.4028 9.56817L18.4792 2.4918V5.73047C18.4792 6.11016 18.787 6.41797 19.1667 6.41797C19.5464 6.41797 19.8542 6.11016 19.8542 5.73047V0.832031C19.8542 0.452336 19.5464 0.144531 19.1667 0.144531H14.2683C13.8886 0.144531 13.5808 0.452336 13.5808 0.832031C13.5808 1.21173 13.8886 1.51953 14.2683 1.51953H17.5069L10.4306 8.5959Z" fill="#595959"/>
</svg>
