<svg width="22" height="22" viewBox="0 0 22 22" fill="none" xmlns="http://www.w3.org/2000/svg">
    <g id="Icon - Logout">
        <g id="Vector">
            <path d="M13.6999 1.14453C12.4463 1.14451 11.4358 1.1445 10.6411 1.25135C9.81597 1.36228 9.12125 1.5996 8.5695 2.15135C8.08831 2.63254 7.84517 3.22386 7.71754 3.91869C7.59352 4.59387 7.5698 5.42014 7.56428 6.41154C7.56217 6.79123 7.86825 7.10074 8.24794 7.10286C8.62763 7.10497 8.93715 6.79888 8.93926 6.41919C8.94484 5.41682 8.97087 4.70633 9.06992 4.1671C9.16536 3.64752 9.3186 3.34679 9.54177 3.12362C9.79547 2.86993 10.1517 2.70452 10.8243 2.61408C11.5167 2.52099 12.4344 2.51953 13.7502 2.51953H14.6668C15.9826 2.51953 16.9003 2.52099 17.5927 2.61408C18.2654 2.70452 18.6216 2.86993 18.8752 3.12362C19.129 3.37732 19.2944 3.73352 19.3848 4.40614C19.4779 5.09855 19.4793 6.01623 19.4793 7.33203V14.6654C19.4793 15.9812 19.4779 16.8989 19.3848 17.5913C19.2944 18.2639 19.129 18.6201 18.8753 18.8738C18.6216 19.1275 18.2654 19.2929 17.5927 19.3833C16.9003 19.4764 15.9826 19.4779 14.6668 19.4779H13.7502C12.4344 19.4779 11.5167 19.4764 10.8243 19.3833C10.1517 19.2929 9.79547 19.1275 9.54177 18.8738C9.3186 18.6506 9.16536 18.3499 9.06992 17.8303C8.97087 17.2911 8.94484 16.5806 8.93926 15.5782C8.93715 15.1985 8.62763 14.8924 8.24794 14.8945C7.86825 14.8967 7.56217 15.2062 7.56428 15.5859C7.5698 16.5773 7.59352 17.4035 7.71754 18.0787C7.84517 18.7735 8.08831 19.3649 8.5695 19.846C9.12125 20.3978 9.81597 20.6351 10.6411 20.7461C11.4358 20.8529 12.4463 20.8529 13.6999 20.8529H14.7171C15.9708 20.8529 16.9812 20.8529 17.7759 20.7461C18.601 20.6351 19.2958 20.3978 19.8475 19.846C20.3993 19.2943 20.6366 18.5996 20.7475 17.7745C20.8544 16.9797 20.8544 15.9693 20.8543 14.7157V7.28174C20.8544 6.02811 20.8544 5.01765 20.7475 4.22293C20.6366 3.39783 20.3993 2.70311 19.8475 2.15135C19.2958 1.5996 18.601 1.36228 17.7759 1.25135C16.9812 1.1445 15.9708 1.14451 14.7172 1.14453H13.6999Z"
                  fill="#595959"/>
            <path d="M13.75 10.3112C14.1297 10.3112 14.4375 10.619 14.4375 10.9987C14.4375 11.3784 14.1297 11.6862 13.75 11.6862H3.6918L5.48907 13.2267C5.77735 13.4738 5.81074 13.9078 5.56364 14.1961C5.31653 14.4844 4.88251 14.5178 4.59423 14.2707L1.38589 11.5207C1.23351 11.3901 1.14581 11.1994 1.14581 10.9987C1.14581 10.798 1.23351 10.6073 1.38589 10.4767L4.59423 7.72671C4.88251 7.47961 5.31653 7.51299 5.56363 7.80128C5.81074 8.08957 5.77735 8.52359 5.48907 8.77069L3.6918 10.3112H13.75Z"
                  fill="#595959"/>
        </g>
    </g>
</svg>
