<svg width="200" height="88" viewBox="0 0 200 88" fill="none" xmlns="http://www.w3.org/2000/svg">
<rect width="200" height="88" rx="31" fill="white"/>
<rect x="12" y="12" width="64" height="64" rx="24" fill="#68C9FF"/>
<path d="M59.3489 52.8893C56.099 52.8893 53.0991 49.6344 51.5492 47.6314C49.9992 49.6344 46.9993 52.8893 43.7494 52.8893C40.4995 52.8893 37.4996 49.6344 35.9497 47.6314C34.4997 49.6344 31.4998 52.8893 28.25 52.8893C27.55 52.8893 27 52.3385 27 51.6374C27 50.9363 27.55 50.3855 28.25 50.3855C30.8499 50.3855 34.0498 46.2292 34.9497 44.7771C35.1997 44.4265 35.5997 44.1761 35.9997 44.1761C36.3997 44.1761 36.8497 44.3764 37.0497 44.7771C37.9496 46.2292 41.1495 50.3855 43.7494 50.3855C46.3494 50.3855 49.5492 46.2292 50.4492 44.7771C50.6992 44.4265 51.0992 44.1761 51.4992 44.1761C51.9492 44.1761 52.3492 44.3764 52.5491 44.7771C53.4491 46.2292 56.649 50.3855 59.2489 50.3855C59.9489 50.3855 60.4989 50.9363 60.4989 51.6374C60.4989 52.3385 60.0489 52.8893 59.3489 52.8893Z" fill="white"/>
<path d="M59.3489 60C56.099 60 53.0991 56.7451 51.5492 54.7421C49.9992 56.7451 46.9993 60 43.7494 60C40.4995 60 37.4996 56.7451 35.9497 54.7421C34.4997 56.7451 31.4998 60 28.25 60C27.55 60 27 59.4492 27 58.7481C27 58.0471 27.55 57.4962 28.25 57.4962C30.8499 57.4962 34.0498 53.34 34.9497 51.8878C35.1997 51.5372 35.5997 51.2869 35.9997 51.2869C36.3997 51.2869 36.8497 51.4872 37.0497 51.8878C37.9496 53.34 41.1495 57.4962 43.7494 57.4962C46.3494 57.4962 49.5492 53.34 50.4492 51.8878C50.6992 51.5372 51.0992 51.2869 51.4992 51.2869C51.9492 51.2869 52.3492 51.4872 52.5491 51.8878C53.4491 53.34 56.649 57.4962 59.2489 57.4962C59.9489 57.4962 60.4989 58.0471 60.4989 58.7481C60.4989 59.4492 60.0489 60 59.3489 60Z" fill="white"/>
<path d="M29.1 47.1807C28.5001 47.1807 28.0001 46.7801 27.8501 46.1792C27.7001 45.1777 27.6001 44.1762 27.6001 43.2247C27.6001 34.2612 34.8499 27.0003 43.7996 27.0003C52.7493 26.9502 59.999 34.2612 59.999 43.2247C59.999 44.2262 59.899 45.1777 59.749 46.1291C59.649 46.8302 58.999 47.2808 58.2991 47.1306C57.5991 47.0305 57.1491 46.3795 57.2991 45.6784C57.4491 44.8772 57.4991 44.0259 57.4991 43.2247C57.4991 35.6633 51.3493 29.504 43.7996 29.504C36.2498 29.504 30.1 35.6132 30.1 43.2247C30.1 44.076 30.2 44.9273 30.35 45.7285C30.45 46.4296 30.05 47.0805 29.35 47.1807C29.25 47.1807 29.15 47.1807 29.1 47.1807Z" fill="white"/>
<path d="M98.4772 57.352C97.2739 57.352 96.1228 57.182 95.0241 56.8419C93.9253 56.5018 92.9182 55.9916 92.0025 55.3115C91.0869 54.6313 90.289 53.8073 89.6089 52.8393C88.9287 51.8452 88.3924 50.6942 88 49.3861L92.9836 47.4241C93.3498 48.8368 93.9907 50.014 94.9064 50.9558C95.822 51.8714 97.0253 52.3292 98.5165 52.3292C99.0659 52.3292 99.5891 52.2638 100.086 52.133C100.609 51.976 101.067 51.7667 101.46 51.5051C101.878 51.2174 102.205 50.8642 102.441 50.4456C102.676 50.0271 102.794 49.5431 102.794 48.9937C102.794 48.4705 102.702 47.9996 102.519 47.5811C102.336 47.1625 102.022 46.7701 101.577 46.4039C101.159 46.0376 100.596 45.6844 99.8899 45.3444C99.2097 45.0043 98.3595 44.6511 97.3393 44.2849L95.6127 43.657C94.854 43.3954 94.0823 43.0422 93.2975 42.5975C92.5388 42.1528 91.8456 41.6165 91.2177 40.9886C90.5899 40.3608 90.0667 39.6283 89.6481 38.7912C89.2557 37.9279 89.0595 36.9599 89.0595 35.8874C89.0595 34.7886 89.2688 33.7684 89.6873 32.8266C90.1321 31.8587 90.7468 31.0215 91.5317 30.3152C92.3426 29.5827 93.2975 29.0203 94.3962 28.6279C95.5211 28.2093 96.7637 28 98.1241 28C99.5367 28 100.753 28.1962 101.773 28.5886C102.82 28.9549 103.696 29.4388 104.403 30.0405C105.135 30.616 105.724 31.257 106.168 31.9633C106.613 32.6696 106.94 33.3367 107.149 33.9646L102.48 35.9266C102.218 35.1418 101.734 34.4355 101.028 33.8076C100.348 33.1798 99.4059 32.8658 98.2026 32.8658C97.0515 32.8658 96.0966 33.1405 95.338 33.6899C94.5793 34.2131 94.2 34.9064 94.2 35.7696C94.2 36.6068 94.5663 37.3262 95.2988 37.9279C96.0312 38.5034 97.1954 39.0659 98.7912 39.6152L100.557 40.2038C101.682 40.5962 102.702 41.0541 103.618 41.5773C104.56 42.0743 105.357 42.676 106.011 43.3823C106.692 44.0887 107.202 44.8996 107.542 45.8152C107.908 46.7047 108.091 47.738 108.091 48.9153C108.091 50.3802 107.79 51.649 107.189 52.7216C106.613 53.768 105.868 54.6313 104.952 55.3115C104.036 55.9916 103.003 56.5018 101.852 56.8419C100.701 57.182 99.576 57.352 98.4772 57.352Z" fill="#68C9FF"/>
<path d="M124.554 54.2127H124.241C123.639 55.1807 122.828 55.9524 121.808 56.5279C120.787 57.0773 119.623 57.352 118.315 57.352C115.882 57.352 114.064 56.6064 112.861 55.1153C111.684 53.6241 111.095 51.6359 111.095 49.1507V37.4962H116.235V48.5229C116.235 49.9094 116.536 50.9427 117.138 51.6229C117.766 52.2769 118.668 52.6039 119.846 52.6039C120.552 52.6039 121.167 52.46 121.69 52.1722C122.239 51.8583 122.697 51.4528 123.063 50.9558C123.456 50.4326 123.744 49.8309 123.927 49.1507C124.136 48.4444 124.241 47.6988 124.241 46.914V37.4962H129.381V56.7241H124.554V54.2127Z" fill="#68C9FF"/>
<path d="M136.649 34.7101C136.204 34.7101 135.773 34.6317 135.354 34.4747C134.962 34.2916 134.609 34.0561 134.295 33.7684C134.007 33.4544 133.772 33.1013 133.588 32.7089C133.431 32.3165 133.353 31.8848 133.353 31.4139C133.353 30.943 133.431 30.5114 133.588 30.119C133.772 29.7266 134.007 29.3865 134.295 29.0987C134.609 28.7848 134.962 28.5494 135.354 28.3924C135.773 28.2093 136.204 28.1177 136.649 28.1177C137.565 28.1177 138.35 28.4447 139.004 29.0987C139.658 29.7266 139.985 30.4983 139.985 31.4139C139.985 32.3296 139.658 33.1144 139.004 33.7684C138.35 34.3962 137.565 34.7101 136.649 34.7101ZM134.099 56.7241V37.4962H139.239V56.7241H134.099Z" fill="#68C9FF"/>
<path d="M161.956 52.0937C161.066 53.6634 159.863 54.9322 158.346 55.9001C156.854 56.868 155.023 57.352 152.852 57.352C151.387 57.352 150.027 57.1035 148.771 56.6064C147.541 56.0832 146.469 55.3638 145.553 54.4482C144.638 53.5326 143.918 52.46 143.395 51.2305C142.898 49.9748 142.649 48.6013 142.649 47.1102C142.649 45.7237 142.898 44.4157 143.395 43.1861C143.892 41.9304 144.585 40.8448 145.475 39.9292C146.364 38.9874 147.411 38.2418 148.614 37.6924C149.843 37.1431 151.191 36.8684 152.656 36.8684C154.199 36.8684 155.573 37.13 156.776 37.6532C157.979 38.1502 158.986 38.8566 159.797 39.7722C160.608 40.6616 161.223 41.7211 161.642 42.9507C162.06 44.1802 162.27 45.5144 162.27 46.9532C162.27 47.1363 162.27 47.2933 162.27 47.4241C162.243 47.5811 162.23 47.725 162.23 47.8558C162.204 47.9866 162.191 48.1304 162.191 48.2874H147.711C147.816 49.0722 148.025 49.7524 148.339 50.3279C148.679 50.8773 149.085 51.3482 149.556 51.7406C150.053 52.1068 150.589 52.3815 151.165 52.5646C151.74 52.7216 152.329 52.8001 152.93 52.8001C154.108 52.8001 155.076 52.5385 155.834 52.0153C156.619 51.4659 157.234 50.7857 157.678 49.9748L161.956 52.0937ZM157.286 44.638C157.26 44.2979 157.142 43.9186 156.933 43.5001C156.75 43.0815 156.462 42.6891 156.07 42.3228C155.703 41.9566 155.232 41.6557 154.657 41.4203C154.108 41.1849 153.44 41.0671 152.656 41.0671C151.557 41.0671 150.589 41.3811 149.752 42.0089C148.915 42.6368 148.326 43.5131 147.986 44.638H157.286Z" fill="#68C9FF"/>
<path d="M167.097 41.8912H163.722V37.4962H167.097V31.6101H172.237V37.4962H176.946V41.8912H172.237V49.3469C172.237 49.7916 172.277 50.2102 172.355 50.6026C172.46 50.9689 172.643 51.2828 172.904 51.5444C173.271 51.9629 173.794 52.1722 174.474 52.1722C174.919 52.1722 175.272 52.133 175.534 52.0545C175.795 51.9499 176.044 51.8191 176.279 51.6621L177.731 56.1748C177.129 56.4625 176.475 56.6718 175.769 56.8026C175.089 56.9596 174.33 57.0381 173.493 57.0381C172.525 57.0381 171.649 56.8942 170.864 56.6064C170.105 56.2925 169.464 55.8739 168.941 55.3507C167.712 54.1735 167.097 52.4992 167.097 50.3279V41.8912Z" fill="#68C9FF"/>
<rect x="0.5" y="0.5" width="199" height="87" rx="30.5" stroke="#4CAAF6" stroke-opacity="0.37"/>
</svg>
