<svg width="24" height="20" viewBox="0 0 24 20" fill="none" xmlns="http://www.w3.org/2000/svg">
<path d="M23.8583 2.59614C22.9676 2.99012 22.0231 3.24886 21.056 3.36381C22.0753 2.75414 22.8383 1.79466 23.2026 0.66414C22.246 1.23347 21.1971 1.63247 20.104 1.84831C19.3697 1.06265 18.3964 0.541597 17.3354 0.366155C16.2744 0.190714 15.1852 0.370712 14.2371 0.878168C13.289 1.38562 12.5351 2.1921 12.0926 3.17223C11.6501 4.15236 11.5438 5.25122 11.7903 6.29797C9.85025 6.20074 7.95235 5.69658 6.21979 4.81825C4.48724 3.93991 2.95877 2.70703 1.73363 1.19964C1.29996 1.9445 1.07207 2.79124 1.07329 3.65314C1.07329 5.34481 1.93429 6.83931 3.24329 7.71431C2.46864 7.68992 1.71103 7.48072 1.03363 7.10414V7.1648C1.03386 8.29146 1.42372 9.38336 2.13711 10.2554C2.85051 11.1274 3.84352 11.7259 4.94779 11.9493C4.22868 12.1442 3.47465 12.1729 2.74279 12.0333C3.05414 13.0031 3.66097 13.8512 4.47832 14.4589C5.29566 15.0667 6.28261 15.4036 7.30096 15.4225C6.28885 16.2174 5.13 16.805 3.89065 17.1517C2.65131 17.4984 1.35577 17.5974 0.078125 17.4431C2.30844 18.8775 4.90474 19.6389 7.55646 19.6365C16.5316 19.6365 21.4398 12.2013 21.4398 5.75314C21.4398 5.54314 21.434 5.33081 21.4246 5.12314C22.38 4.43267 23.2045 3.57733 23.8595 2.59731L23.8583 2.59614Z" fill="#595959"/>
</svg>
